<svg viewBox="0 0 100 100" xmlns="http://www.w3.org/2000/svg">
  <rect width="100" height="100" rx="20" fill="#dcdcdc"/>
  <g transform="translate(15 13) scale(0.7)">
    <svg x="0" y="0" width="100" height="100" viewBox="0 0 100 100" xmlns="http://www.w3.org/2000/svg">
      <style>
        path {
          fill: #1d1d1d;
        }
        @media (prefers-color-scheme: dark) {
          path {
            fill: #1d1d1d;
          }
        }
      </style>
      <path d="M49.63,19.92C27.54,20.04,19.9,42.8,20,49.88c0,9.9,9.9,20.1,20,20.1,6.5,0,10.03-2.9,10.03-2.9l-2-7.8s-3.53,1.9-6.03,1.9c-6.1,0-10.1-6-10-10.1,0-7.3,7-10.3,10-10.3s10,3,10,10.3c0,3.9-2.2,8-8.5,8.1l2.4,8s14.6-2.5,14.7-20.1C80,26.92,72.46,19.8,49.63,19.92Z"/>
    </svg>
  </g>
</svg> 